<svg xmlns="http://www.w3.org/2000/svg" width="54" height="54" viewBox="0 0 54 54">
  <g fill="none" fill-rule="evenodd">
    <rect width="54" height="54" fill="#CED9E9" rx="12"/>
    <path fill="#3D5B85" d="M25.4367164,23.5159397 L29.0600786,21.3557646 C29.5344556,21.072951 29.6897484,20.4591267 29.4069348,19.9847497 C29.3935474,19.9622944 29.3792846,19.9403727 29.3641793,19.9190352 C26.7594726,16.2396784 23.4367129,14.4 19.3959001,14.4 C11.961891,14.4 7.2,20.4431471 7.2,26.5224039 C7.2,34.4630199 12.9904944,38.7799226 19.3959001,38.7799226 C23.41697,38.7799226 26.7286849,37.0099185 29.3310446,33.4699105 L29.3310369,33.4699048 C29.658154,33.024925 29.5626075,32.3990169 29.1176278,32.0718997 C29.0882091,32.0502732 29.057628,32.0302742 29.026022,32.0119925 L25.4681391,29.9540668 C25.0438656,29.7086567 24.5042539,29.8069374 24.1937488,30.1861745 C22.9013078,31.7647042 21.3020249,32.553969 19.3959001,32.553969 C15.9347917,32.553969 13.2182925,29.8676549 13.2182925,26.5899613 C13.2182925,23.7164923 15.6155699,20.8174584 19.0321553,20.8174584 C20.9846736,20.8174584 22.699229,21.6515643 24.1758216,23.3197761 L24.1758057,23.3197902 C24.4943615,23.6796853 25.0238879,23.7620594 25.4367164,23.5159397 Z"/>
    <polygon fill="#3D5B85" fill-rule="nonzero" points="31.97 25.34 34.495 25.34 34.495 22.802 36.624 22.802 36.624 25.34 39.162 25.34 39.162 27.476 36.624 27.476 36.624 30.001 34.495 30.001 34.495 27.476 31.97 27.476"/>
    <polygon fill="#3D5B85" fill-rule="nonzero" points="40.883 25.34 43.407 25.34 43.407 22.802 45.536 22.802 45.536 25.34 48.074 25.34 48.074 27.476 45.536 27.476 45.536 30.001 43.407 30.001 43.407 27.476 40.883 27.476"/>
  </g>
</svg>
