<svg xmlns="http://www.w3.org/2000/svg" xmlns:xlink="http://www.w3.org/1999/xlink" width="60" height="60" viewBox="0 0 60 60">
  <defs>
    <circle id="en-a" cx="30" cy="30" r="30"/>
  </defs>
  <g fill="none" fill-rule="evenodd">
    <mask id="en-b" fill="#fff">
      <use xlink:href="#en-a"/>
    </mask>
    <use fill="#383862" xlink:href="#en-a"/>
    <polygon fill="#FFF" points="10.759 22.791 .314 12.345 4.589 8.069 15.349 18.829 15.349 -1.395 29.767 -1.395 29.767 18.642 46.362 2.047 50.638 6.322 34.169 22.791 61.86 22.791 61.86 37.674 34.194 37.674 49.318 52.798 45.042 57.073 29.767 41.799 29.767 61.86 15.349 61.86 15.349 41.611 5.909 51.051 1.634 46.775 10.735 37.674 -1.395 37.674 -1.395 22.791" mask="url(#en-b)"/>
    <polygon fill="#C5646D" points="16.181 26.047 1.629 11.494 3.274 9.85 18.14 24.716 18.14 -1.395 27.442 -1.395 27.442 24.528 47.678 4.292 49.322 5.937 29.213 26.047 61.86 26.047 61.86 33.953 27.442 33.953 27.442 34.018 48.002 54.579 46.358 56.223 27.442 37.307 27.442 61.86 18.14 61.86 18.14 37.12 4.594 50.666 2.949 49.021 18.017 33.953 -1.395 33.953 -1.395 26.047" mask="url(#en-b)"/>
  </g>
</svg>
