<svg xmlns="http://www.w3.org/2000/svg" width="54" height="54" viewBox="0 0 54 54">
  <g fill="none" fill-rule="evenodd">
    <rect width="54" height="54" fill="#FBF2CA" rx="12"/>
    <path fill="#4A5E63" d="M13.5944714-1.86517468e-13L8.9784597-1.86517468e-13C8.9784597 6.48553217 8.9784597 11.5377133 8.9784597 15.1565435 8.9784597 19.1175986 4.87536499 19.3298794 3.7133867 16.0139908 1.30446223 17.4984652.1 18.2407024.1 18.2407024 1.17005325 20.9302341 3.09262598 22.275 5.8677182 22.275 7.22671791 22.275 5.71402129 22.275 7.84147914 22.275 10.7881949 22.275 13.7452059 20.5087106 13.5944714 15.1565435 13.5944714 10.2354092 13.5944714 5.18322799 13.5944714-1.86517468e-13zM27.0921263 5.69918458L30.5186605 3.53835672C29.0068916 1.10008259 26.8773089-.0780343796 24.1299125.00400580507 20.8425538.00400580507 17.6556587 1.93904824 17.6556587 5.69918458 17.1541307 13.7515931 27.5046662 11.6918857 27.5046662 16.0824055 27.5046662 17.4382995 26.5040232 18.3444953 24.0625 18.3444953 22.2168456 18.3444953 20.8070659 17.430221 19.8331609 15.6016724L16.3 17.7855059C18.1166641 20.7714704 20.7266349 22.2644527 24.1299125 22.2644527 28.1519396 22.4733497 32.237324 19.5501281 31.7915386 16.0824055 31.4738425 8.07154882 22.2800676 10.0007699 22.0077842 5.69918458 22.0077842 4.65570518 22.8575934 3.87122778 23.8111917 3.77092139 24.9668289 3.5949423 26.0604737 4.23769669 27.0921263 5.69918458z" transform="translate(15 25)"/>
  </g>
</svg>
