<svg xmlns="http://www.w3.org/2000/svg" width="285" height="35" viewBox="0 0 285 35">
  <g fill="none" stroke="#C5F699" transform="translate(.9 1)">
    <path d="M7.436 13.332L8.624 13.332C9.7240055 13.332 10.5159976 12.9873368 11 12.298L18.216 1.826C18.612002 1.25399714 19.0629975.86533436 19.569.66 20.0750025.45466564 20.694663.352 21.428.352L27.896.352 18.392 13.31C18.054665 13.7793357 17.7026685 14.1679985 17.336 14.476 16.9693315 14.7840015 16.5953352 15.0406656 16.214 15.246 16.7713361 15.4513344 17.2809977 15.7336649 17.743 16.093 18.2050023 16.4523351 18.6266648 16.9326637 19.008 17.534L28.688 32.406 22.044 32.406C21.6186645 32.406 21.2556682 32.376667 20.955 32.318 20.6543318 32.259333 20.3940011 32.1713339 20.174 32.054 19.9539989 31.9366661 19.7633341 31.7936675 19.602 31.625 19.4406659 31.4563325 19.2866674 31.2620011 19.14 31.042L11.88 19.888C11.6159987 19.4773313 11.2823353 19.1876675 10.879 19.019 10.4756646 18.8503325 9.92933678 18.766 9.24 18.766L7.436 18.766 7.436 32.406-8.68638494e-13 32.406-8.68638494e-13.352 7.436.352 7.436 13.332zM62.392 16.368C62.392 18.6853449 61.9923373 20.8413234 61.193 22.836 60.3936627 24.8306766 59.2680073 26.5649926 57.816 28.039 56.3639927 29.5130074 54.6150102 30.6679958 52.569 31.504 50.5229898 32.3400042 48.2533458 32.758 45.76 32.758 43.2666542 32.758 40.9933436 32.3400042 38.94 31.504 36.8866564 30.6679958 35.1303406 29.5130074 33.671 28.039 32.2116594 26.5649926 31.0823373 24.8306766 30.283 22.836 29.4836627 20.8413234 29.084 18.6853449 29.084 16.368 29.084 14.0506551 29.4836627 11.8946766 30.283 9.9 31.0823373 7.90532336 32.2116594 6.174674 33.671 4.708 35.1303406 3.241326 36.8866564 2.09000418 38.94 1.254 40.9933436.41799582 43.2666542 2.84217094e-14 45.76 2.84217094e-14 48.2533458 2.84217094e-14 50.5229898.42166245 52.569 1.265 54.6150102 2.10833755 56.3639927 3.263326 57.816 4.73 59.2680073 6.196674 60.3936627 7.92732336 61.193 9.922 61.9923373 11.9166766 62.392 14.0653218 62.392 16.368zM54.78 16.368C54.78 14.7839921 54.5746687 13.357673 54.164 12.089 53.7533313 10.820327 53.1630038 9.7460044 52.393 8.866 51.6229961 7.9859956 50.6806722 7.31133568 49.566 6.842 48.4513278 6.37266432 47.1826738 6.138 45.76 6.138 44.3226595 6.138 43.0430056 6.37266432 41.921 6.842 40.7989944 7.31133568 39.8530038 7.9859956 39.083 8.866 38.3129961 9.7460044 37.7226687 10.820327 37.312 12.089 36.9013313 13.357673 36.696 14.7839921 36.696 16.368 36.696 17.9666747 36.9013313 19.400327 37.312 20.669 37.7226687 21.937673 38.3129961 23.0119956 39.083 23.892 39.8530038 24.7720044 40.7989944 25.4429977 41.921 25.905 43.0430056 26.3670023 44.3226595 26.598 45.76 26.598 47.1826738 26.598 48.4513278 26.3670023 49.566 25.905 50.6806722 25.4429977 51.6229961 24.7720044 52.393 23.892 53.1630038 23.0119956 53.7533313 21.937673 54.164 20.669 54.5746687 19.400327 54.78 17.9666747 54.78 16.368zM83.82 6.864C83.5999989 7.21600176 83.3690012 7.47999912 83.127 7.656 82.8849988 7.83200088 82.5733352 7.92 82.192 7.92 81.854665 7.92 81.4916686 7.81366773 81.103 7.601 80.7143314 7.38833227 80.2743358 7.15000132 79.783 6.886 79.2916642 6.62199868 78.7306698 6.38366773 78.1 6.171 77.4693302 5.95833227 76.7506707 5.852 75.944 5.852 74.5506597 5.852 73.5130034 6.14899703 72.831 6.743 72.1489966 7.33700297 71.808 8.13999494 71.808 9.152 71.808 9.79733656 72.0133313 10.3326645 72.424 10.758 72.8346687 11.1833355 73.3736633 11.5499985 74.041 11.858 74.7083367 12.1660015 75.4709957 12.4483321 76.329 12.705 77.1870043 12.961668 78.0633289 13.2476651 78.958 13.563 79.8526711 13.8783349 80.7289957 14.2486645 81.587 14.674 82.4450043 15.0993355 83.2076633 15.6419967 83.875 16.302 84.5423367 16.9620033 85.0813313 17.7649953 85.492 18.711 85.9026687 19.6570047 86.108 20.7973267 86.108 22.132 86.108 23.6133407 85.8513359 24.9993269 85.338 26.29 84.8246641 27.5806731 84.0803382 28.7063285 83.105 29.667 82.1296618 30.6276715 80.9270071 31.3829973 79.497 31.933 78.0669928 32.4830028 76.4426758 32.758 74.624 32.758 73.6266617 32.758 72.6110052 32.6553344 71.577 32.45 70.5429948 32.2446656 69.5420048 31.9550019 68.574 31.581 67.6059952 31.2069981 66.6966709 30.7633359 65.846 30.25 64.9953291 29.7366641 64.2546698 29.1646698 63.624 28.534L65.824 25.058C65.9853341 24.7939987 66.2126652 24.5813341 66.506 24.42 66.7993348 24.2586659 67.114665 24.178 67.452 24.178 67.8920022 24.178 68.3356644 24.3173319 68.783 24.596 69.2303356 24.8746681 69.7363305 25.182665 70.301 25.52 70.8656695 25.857335 71.514663 26.1653319 72.248 26.444 72.981337 26.7226681 73.8466617 26.862 74.844 26.862 76.1933401 26.862 77.2419963 26.565003 77.99 25.971 78.7380037 25.376997 79.112 24.4346731 79.112 23.144 79.112 22.3959963 78.9066687 21.7873357 78.496 21.318 78.0853313 20.8486643 77.5463367 20.4600015 76.879 20.152 76.2116633 19.8439985 75.4526709 19.5726678 74.602 19.338 73.7513291 19.1033322 72.8786711 18.8430014 71.984 18.557 71.0893289 18.2709986 70.2166709 17.9190021 69.366 17.501 68.5153291 17.0829979 67.7563367 16.5330034 67.089 15.851 66.4216633 15.1689966 65.8826687 14.3183384 65.472 13.299 65.0613313 12.2796616 64.856 11.0220075 64.856 9.526 64.856 8.32332732 65.0979976 7.15000572 65.582 6.006 66.0660024 4.86199428 66.7773286 3.84267114 67.716 2.948 68.6546714 2.05332886 69.8059932 1.33833601 71.17.803 72.5340068.26766399 74.0959912 1.42108547e-14 75.856 1.42108547e-14 76.8386716 1.42108547e-14 77.795662.07699923 78.727.231 79.658338.38500077 80.5419958.61233183 81.378.913 82.2140042 1.21366817 82.9949964 1.57299791 83.721 1.991 84.4470036 2.40900209 85.0959971 2.88199736 85.668 3.41L83.82 6.864zM97.24 13.332L98.428 13.332C99.5280055 13.332 100.319998 12.9873368 100.804 12.298L108.02 1.826C108.416002 1.25399714 108.866997.86533436 109.373.66 109.879003.45466564 110.498663.352 111.232.352L117.7.352 108.196 13.31C107.858665 13.7793357 107.506668 14.1679985 107.14 14.476 106.773331 14.7840015 106.399335 15.0406656 106.018 15.246 106.575336 15.4513344 107.084998 15.7336649 107.547 16.093 108.009002 16.4523351 108.430665 16.9326637 108.812 17.534L118.492 32.406 111.848 32.406C111.422665 32.406 111.059668 32.376667 110.759 32.318 110.458332 32.259333 110.198001 32.1713339 109.978 32.054 109.757999 31.9366661 109.567334 31.7936675 109.406 31.625 109.244666 31.4563325 109.090667 31.2620011 108.944 31.042L101.684 19.888C101.419999 19.4773313 101.086335 19.1876675 100.683 19.019 100.279665 18.8503325 99.7333368 18.766 99.044 18.766L97.24 18.766 97.24 32.406 89.804 32.406 89.804.352 97.24.352 97.24 13.332z"/>
    <polygon points="129.36 32.406 121.88 32.406 121.88 .352 129.36 .352"/>
    <path d="M142.736 20.548L142.736 32.406 135.3 32.406 135.3.352 145.728.352C148.045345.352 150.021658.59033095 151.657 1.067 153.292342 1.54366905 154.626995 2.20732908 155.661 3.058 156.695005 3.90867092 157.446664 4.91332754 157.916 6.072 158.385336 7.23067246 158.62 8.49199318 158.62 9.856 158.62 10.8973385 158.480668 11.8799954 158.202 12.804 157.923332 13.7280046 157.509003 14.5823294 156.959 15.367 156.408997 16.1516706 155.734337 16.8519969 154.935 17.468 154.135663 18.0840031 153.215339 18.589998 152.174 18.986 152.672669 19.2353346 153.138331 19.5433315 153.571 19.91 154.003669 20.2766685 154.381332 20.7239974 154.704 21.252L161.524 32.406 154.792 32.406C153.545327 32.406 152.650669 31.9366714 152.108 30.998L146.784 21.692C146.549332 21.2813313 146.274335 20.9880009 145.959 20.812 145.643665 20.6359991 145.200003 20.548 144.628 20.548L142.736 20.548zM142.736 15.422L145.728 15.422C146.740005 15.422 147.601663 15.293668 148.313 15.037 149.024337 14.780332 149.607331 14.4246689 150.062 13.97 150.516669 13.5153311 150.846666 12.9836697 151.052 12.375 151.257334 11.7663303 151.36 11.1100035 151.36 10.406 151.36 8.99799296 150.901671 7.89800396 149.985 7.106 149.068329 6.31399604 147.649343 5.918 145.728 5.918L142.736 5.918 142.736 15.422zM194.392 32.406L188.628 32.406C187.982663 32.406 187.451002 32.2556682 187.033 31.955 186.614998 31.6543318 186.325334 31.2693357 186.164 30.8L184.272 25.212 172.084 25.212 170.192 30.8C170.045333 31.2106687 169.759335 31.5809984 169.334 31.911 168.908665 32.2410017 168.388003 32.406 167.772 32.406L161.964 32.406 174.372.352 181.984.352 194.392 32.406zM173.8 20.152L182.556 20.152 179.608 11.374C179.417332 10.8166639 179.193668 10.1603371 178.937 9.405 178.680332 8.64966289 178.427335 7.8320044 178.178 6.952 177.943332 7.84667114 177.701335 8.67532952 177.452 9.438 177.202665 10.2006705 176.968001 10.8606639 176.748 11.418L173.8 20.152zM200.904.352C201.226668.352 201.497999.36666652 201.718.396 201.938001.42533348 202.135999.48033293 202.312.561 202.488001.64166707 202.656666.7553326 202.818.902 202.979334 1.0486674 203.162666 1.24666542 203.368 1.496L218.592 20.746C218.533333 20.1299969 218.489333 19.5323362 218.46 18.953 218.430667 18.3736638 218.416 17.8273359 218.416 17.314L218.416.352 224.972.352 224.972 32.406 221.1 32.406C220.527997 32.406 220.044002 32.3180009 219.648 32.142 219.251998 31.9659991 218.870668 31.6433357 218.504 31.174L203.39 12.078C203.434 12.6353361 203.470667 13.181664 203.5 13.717 203.529333 14.252336 203.544 14.7546643 203.544 15.224L203.544 32.406 196.988 32.406 196.988.352 200.904.352z"/>
    <polygon points="253.528 .352 253.528 6.248 244.508 6.248 244.508 32.406 237.072 32.406 237.072 6.248 228.052 6.248 228.052 .352"/>
    <path d="M282.92,32.406 L277.156,32.406 C276.510663,32.406 275.979002,32.2556682 275.561,31.955 C275.142998,31.6543318 274.853334,31.2693357 274.692,30.8 L272.8,25.212 L260.612,25.212 L258.72,30.8 C258.573333,31.2106687 258.287335,31.5809984 257.862,31.911 C257.436665,32.2410017 256.916003,32.406 256.3,32.406 L250.492,32.406 L262.9,0.352 L270.512,0.352 L282.92,32.406 Z M262.328,20.152 L271.084,20.152 L268.136,11.374 C267.945332,10.8166639 267.721668,10.1603371 267.465,9.405 C267.208332,8.64966289 266.955335,7.8320044 266.706,6.952 C266.471332,7.84667114 266.229335,8.67532952 265.98,9.438 C265.730665,10.2006705 265.496001,10.8606639 265.276,11.418 L262.328,20.152 Z"/>
  </g>
</svg>
