<svg xmlns="http://www.w3.org/2000/svg" width="122" height="34" viewBox="0 0 122 34">
  <g fill="none" stroke="#C5F699" transform="translate(1 1.352)">
    <polygon points="25.476 0 25.476 5.896 16.456 5.896 16.456 32.054 9.02 32.054 9.02 5.896 0 5.896 0 0"/>
    <polygon points="36.696 32.054 29.216 32.054 29.216 0 36.696 0"/>
    <polygon points="50.776 32.054 43.296 32.054 43.296 0 50.776 0"/>
    <path d="M60.632-7.10542736e-14C60.9546683-7.10542736e-14 61.2259989.01466652 61.446.044 61.6660011.07333348 61.8639991.12833293 62.04.209 62.2160009.28966707 62.3846659.4033326 62.546.55 62.7073341.6966674 62.8906656.89466542 63.096 1.144L78.32 20.394C78.261333 19.7779969 78.2173335 19.1803362 78.188 18.601 78.1586665 18.0216638 78.144 17.4753359 78.144 16.962L78.144-7.10542736e-14 84.7-7.10542736e-14 84.7 32.054 80.828 32.054C80.2559971 32.054 79.772002 31.9660009 79.376 31.79 78.979998 31.6139991 78.5986685 31.2913357 78.232 30.822L63.118 11.726C63.1620002 12.2833361 63.1986665 12.829664 63.228 13.365 63.2573335 13.900336 63.272 14.4026643 63.272 14.872L63.272 32.054 56.716 32.054 56.716-7.10542736e-14 60.632-7.10542736e-14zM119.812 32.054L114.048 32.054C113.402663 32.054 112.871002 31.9036682 112.453 31.603 112.034998 31.3023318 111.745334 30.9173357 111.584 30.448L109.692 24.86 97.504 24.86 95.612 30.448C95.4653326 30.8586687 95.1793355 31.2289983 94.754 31.559 94.3286645 31.8890016 93.8080031 32.054 93.192 32.054L87.384 32.054 99.792-8.52651283e-14 107.404-8.52651283e-14 119.812 32.054zM99.22 19.8L107.976 19.8 105.028 11.022C104.837332 10.4646639 104.613668 9.80833711 104.357 9.053 104.100332 8.29766289 103.847335 7.4800044 103.598 6.6 103.363332 7.49467114 103.121335 8.32332952 102.872 9.086 102.622665 9.84867048 102.388001 10.5086639 102.168 11.066L99.22 19.8z"/>
  </g>
</svg>
