<svg xmlns="http://www.w3.org/2000/svg" width="416" height="35" viewBox="0 0 416 35">
  <g fill="none" stroke="#C5F699" transform="translate(1 1)">
    <polygon points="25.476 .352 25.476 6.248 16.456 6.248 16.456 32.406 9.02 32.406 9.02 6.248 0 6.248 0 .352"/>
    <polygon points="36.696 32.406 29.216 32.406 29.216 .352 36.696 .352"/>
    <polygon points="50.776 32.406 43.296 32.406 43.296 .352 50.776 .352"/>
    <path d="M60.632.352C60.9546683.352 61.2259989.36666652 61.446.396 61.6660011.42533348 61.8639991.48033293 62.04.561 62.2160009.64166707 62.3846659.7553326 62.546.902 62.7073341 1.0486674 62.8906656 1.24666542 63.096 1.496L78.32 20.746C78.261333 20.1299969 78.2173335 19.5323362 78.188 18.953 78.1586665 18.3736638 78.144 17.8273359 78.144 17.314L78.144.352 84.7.352 84.7 32.406 80.828 32.406C80.2559971 32.406 79.772002 32.3180009 79.376 32.142 78.979998 31.9659991 78.5986685 31.6433357 78.232 31.174L63.118 12.078C63.1620002 12.6353361 63.1986665 13.181664 63.228 13.717 63.2573335 14.252336 63.272 14.7546643 63.272 15.224L63.272 32.406 56.716 32.406 56.716.352 60.632.352zM119.812 32.406L114.048 32.406C113.402663 32.406 112.871002 32.2556682 112.453 31.955 112.034998 31.6543318 111.745334 31.2693357 111.584 30.8L109.692 25.212 97.504 25.212 95.612 30.8C95.4653326 31.2106687 95.1793355 31.5809984 94.754 31.911 94.3286645 32.2410017 93.8080031 32.406 93.192 32.406L87.384 32.406 99.792.352 107.404.352 119.812 32.406zM99.22 20.152L107.976 20.152 105.028 11.374C104.837332 10.8166639 104.613668 10.1603371 104.357 9.405 104.100332 8.64966289 103.847335 7.8320044 103.598 6.952 103.363332 7.84667114 103.121335 8.67532952 102.872 9.438 102.622665 10.2006705 102.388001 10.8606639 102.168 11.418L99.22 20.152zM138.336 13.332L139.524 13.332C140.624006 13.332 141.415998 12.9873368 141.9 12.298L149.116 1.826C149.512002 1.25399714 149.962997.86533436 150.469.66 150.975003.45466564 151.594663.352 152.328.352L158.796.352 149.292 13.31C148.954665 13.7793357 148.602669 14.1679985 148.236 14.476 147.869332 14.7840015 147.495335 15.0406656 147.114 15.246 147.671336 15.4513344 148.180998 15.7336649 148.643 16.093 149.105002 16.4523351 149.526665 16.9326637 149.908 17.534L159.588 32.406 152.944 32.406C152.518665 32.406 152.155668 32.376667 151.855 32.318 151.554332 32.259333 151.294001 32.1713339 151.074 32.054 150.853999 31.9366661 150.663334 31.7936675 150.502 31.625 150.340666 31.4563325 150.186667 31.2620011 150.04 31.042L142.78 19.888C142.515999 19.4773313 142.182335 19.1876675 141.779 19.019 141.375665 18.8503325 140.829337 18.766 140.14 18.766L138.336 18.766 138.336 32.406 130.9 32.406 130.9.352 138.336.352 138.336 13.332zM193.292 16.368C193.292 18.6853449 192.892337 20.8413234 192.093 22.836 191.293663 24.8306766 190.168007 26.5649926 188.716 28.039 187.263993 29.5130074 185.51501 30.6679958 183.469 31.504 181.42299 32.3400042 179.153346 32.758 176.66 32.758 174.166654 32.758 171.893344 32.3400042 169.84 31.504 167.786656 30.6679958 166.030341 29.5130074 164.571 28.039 163.111659 26.5649926 161.982337 24.8306766 161.183 22.836 160.383663 20.8413234 159.984 18.6853449 159.984 16.368 159.984 14.0506551 160.383663 11.8946766 161.183 9.9 161.982337 7.90532336 163.111659 6.174674 164.571 4.708 166.030341 3.241326 167.786656 2.09000418 169.84 1.254 171.893344.41799582 174.166654 2.84217094e-14 176.66 2.84217094e-14 179.153346 2.84217094e-14 181.42299.42166245 183.469 1.265 185.51501 2.10833755 187.263993 3.263326 188.716 4.73 190.168007 6.196674 191.293663 7.92732336 192.093 9.922 192.892337 11.9166766 193.292 14.0653218 193.292 16.368zM185.68 16.368C185.68 14.7839921 185.474669 13.357673 185.064 12.089 184.653331 10.820327 184.063004 9.7460044 183.293 8.866 182.522996 7.9859956 181.580672 7.31133568 180.466 6.842 179.351328 6.37266432 178.082674 6.138 176.66 6.138 175.222659 6.138 173.943006 6.37266432 172.821 6.842 171.698994 7.31133568 170.753004 7.9859956 169.983 8.866 169.212996 9.7460044 168.622669 10.820327 168.212 12.089 167.801331 13.357673 167.596 14.7839921 167.596 16.368 167.596 17.9666747 167.801331 19.400327 168.212 20.669 168.622669 21.937673 169.212996 23.0119956 169.983 23.892 170.753004 24.7720044 171.698994 25.4429977 172.821 25.905 173.943006 26.3670023 175.222659 26.598 176.66 26.598 178.082674 26.598 179.351328 26.3670023 180.466 25.905 181.580672 25.4429977 182.522996 24.7720044 183.293 23.892 184.063004 23.0119956 184.653331 21.937673 185.064 20.669 185.474669 19.400327 185.68 17.9666747 185.68 16.368zM214.72 6.864C214.499999 7.21600176 214.269001 7.47999912 214.027 7.656 213.784999 7.83200088 213.473335 7.92 213.092 7.92 212.754665 7.92 212.391669 7.81366773 212.003 7.601 211.614331 7.38833227 211.174336 7.15000132 210.683 6.886 210.191664 6.62199868 209.63067 6.38366773 209 6.171 208.36933 5.95833227 207.650671 5.852 206.844 5.852 205.45066 5.852 204.413003 6.14899703 203.731 6.743 203.048997 7.33700297 202.708 8.13999494 202.708 9.152 202.708 9.79733656 202.913331 10.3326645 203.324 10.758 203.734669 11.1833355 204.273663 11.5499985 204.941 11.858 205.608337 12.1660015 206.370996 12.4483321 207.229 12.705 208.087004 12.961668 208.963329 13.2476651 209.858 13.563 210.752671 13.8783349 211.628996 14.2486645 212.487 14.674 213.345004 15.0993355 214.107663 15.6419967 214.775 16.302 215.442337 16.9620033 215.981331 17.7649953 216.392 18.711 216.802669 19.6570047 217.008 20.7973267 217.008 22.132 217.008 23.6133407 216.751336 24.9993269 216.238 26.29 215.724664 27.5806731 214.980338 28.7063285 214.005 29.667 213.029662 30.6276715 211.827007 31.3829973 210.397 31.933 208.966993 32.4830028 207.342676 32.758 205.524 32.758 204.526662 32.758 203.511005 32.6553344 202.477 32.45 201.442995 32.2446656 200.442005 31.9550019 199.474 31.581 198.505995 31.2069981 197.596671 30.7633359 196.746 30.25 195.895329 29.7366641 195.15467 29.1646698 194.524 28.534L196.724 25.058C196.885334 24.7939987 197.112665 24.5813341 197.406 24.42 197.699335 24.2586659 198.014665 24.178 198.352 24.178 198.792002 24.178 199.235664 24.3173319 199.683 24.596 200.130336 24.8746681 200.636331 25.182665 201.201 25.52 201.765669 25.857335 202.414663 26.1653319 203.148 26.444 203.881337 26.7226681 204.746662 26.862 205.744 26.862 207.09334 26.862 208.141996 26.565003 208.89 25.971 209.638004 25.376997 210.012 24.4346731 210.012 23.144 210.012 22.3959963 209.806669 21.7873357 209.396 21.318 208.985331 20.8486643 208.446337 20.4600015 207.779 20.152 207.111663 19.8439985 206.352671 19.5726678 205.502 19.338 204.651329 19.1033322 203.778671 18.8430014 202.884 18.557 201.989329 18.2709986 201.116671 17.9190021 200.266 17.501 199.415329 17.0829979 198.656337 16.5330034 197.989 15.851 197.321663 15.1689966 196.782669 14.3183384 196.372 13.299 195.961331 12.2796616 195.756 11.0220075 195.756 9.526 195.756 8.32332732 195.997998 7.15000572 196.482 6.006 196.966002 4.86199428 197.677329 3.84267114 198.616 2.948 199.554671 2.05332886 200.705993 1.33833601 202.07.803 203.434007.26766399 204.995991 1.42108547e-14 206.756 1.42108547e-14 207.738672 1.42108547e-14 208.695662.07699923 209.627.231 210.558338.38500077 211.441996.61233183 212.278.913 213.114004 1.21366817 213.894996 1.57299791 214.621 1.991 215.347004 2.40900209 215.995997 2.88199736 216.568 3.41L214.72 6.864zM228.14 13.332L229.328 13.332C230.428006 13.332 231.219998 12.9873368 231.704 12.298L238.92 1.826C239.316002 1.25399714 239.766997.86533436 240.273.66 240.779003.45466564 241.398663.352 242.132.352L248.6.352 239.096 13.31C238.758665 13.7793357 238.406669 14.1679985 238.04 14.476 237.673332 14.7840015 237.299335 15.0406656 236.918 15.246 237.475336 15.4513344 237.984998 15.7336649 238.447 16.093 238.909002 16.4523351 239.330665 16.9326637 239.712 17.534L249.392 32.406 242.748 32.406C242.322665 32.406 241.959668 32.376667 241.659 32.318 241.358332 32.259333 241.098001 32.1713339 240.878 32.054 240.657999 31.9366661 240.467334 31.7936675 240.306 31.625 240.144666 31.4563325 239.990667 31.2620011 239.844 31.042L232.584 19.888C232.319999 19.4773313 231.986335 19.1876675 231.583 19.019 231.179665 18.8503325 230.633337 18.766 229.944 18.766L228.14 18.766 228.14 32.406 220.704 32.406 220.704.352 228.14.352 228.14 13.332z"/>
    <polygon points="260.26 32.406 252.78 32.406 252.78 .352 260.26 .352"/>
    <path d="M273.636 20.548L273.636 32.406 266.2 32.406 266.2.352 276.628.352C278.945345.352 280.921658.59033095 282.557 1.067 284.192342 1.54366905 285.526995 2.20732908 286.561 3.058 287.595005 3.90867092 288.346664 4.91332754 288.816 6.072 289.285336 7.23067246 289.52 8.49199318 289.52 9.856 289.52 10.8973385 289.380668 11.8799954 289.102 12.804 288.823332 13.7280046 288.409003 14.5823294 287.859 15.367 287.308997 16.1516706 286.634337 16.8519969 285.835 17.468 285.035663 18.0840031 284.115339 18.589998 283.074 18.986 283.572669 19.2353346 284.038331 19.5433315 284.471 19.91 284.903669 20.2766685 285.281332 20.7239974 285.604 21.252L292.424 32.406 285.692 32.406C284.445327 32.406 283.550669 31.9366714 283.008 30.998L277.684 21.692C277.449332 21.2813313 277.174335 20.9880009 276.859 20.812 276.543665 20.6359991 276.100003 20.548 275.528 20.548L273.636 20.548zM273.636 15.422L276.628 15.422C277.640005 15.422 278.501663 15.293668 279.213 15.037 279.924337 14.780332 280.507331 14.4246689 280.962 13.97 281.416669 13.5153311 281.746666 12.9836697 281.952 12.375 282.157334 11.7663303 282.26 11.1100035 282.26 10.406 282.26 8.99799296 281.801671 7.89800396 280.885 7.106 279.968329 6.31399604 278.549343 5.918 276.628 5.918L273.636 5.918 273.636 15.422zM325.292 32.406L319.528 32.406C318.882663 32.406 318.351002 32.2556682 317.933 31.955 317.514998 31.6543318 317.225334 31.2693357 317.064 30.8L315.172 25.212 302.984 25.212 301.092 30.8C300.945333 31.2106687 300.659335 31.5809984 300.234 31.911 299.808665 32.2410017 299.288003 32.406 298.672 32.406L292.864 32.406 305.272.352 312.884.352 325.292 32.406zM304.7 20.152L313.456 20.152 310.508 11.374C310.317332 10.8166639 310.093668 10.1603371 309.837 9.405 309.580332 8.64966289 309.327335 7.8320044 309.078 6.952 308.843332 7.84667114 308.601335 8.67532952 308.352 9.438 308.102665 10.2006705 307.868001 10.8606639 307.648 11.418L304.7 20.152zM331.804.352C332.126668.352 332.397999.36666652 332.618.396 332.838001.42533348 333.035999.48033293 333.212.561 333.388001.64166707 333.556666.7553326 333.718.902 333.879334 1.0486674 334.062666 1.24666542 334.268 1.496L349.492 20.746C349.433333 20.1299969 349.389333 19.5323362 349.36 18.953 349.330667 18.3736638 349.316 17.8273359 349.316 17.314L349.316.352 355.872.352 355.872 32.406 352 32.406C351.427997 32.406 350.944002 32.3180009 350.548 32.142 350.151998 31.9659991 349.770668 31.6433357 349.404 31.174L334.29 12.078C334.334 12.6353361 334.370667 13.181664 334.4 13.717 334.429333 14.252336 334.444 14.7546643 334.444 15.224L334.444 32.406 327.888 32.406 327.888.352 331.804.352z"/>
    <polygon points="384.428 .352 384.428 6.248 375.408 6.248 375.408 32.406 367.972 32.406 367.972 6.248 358.952 6.248 358.952 .352"/>
    <path d="M413.82,32.406 L408.056,32.406 C407.410663,32.406 406.879002,32.2556682 406.461,31.955 C406.042998,31.6543318 405.753334,31.2693357 405.592,30.8 L403.7,25.212 L391.512,25.212 L389.62,30.8 C389.473333,31.2106687 389.187335,31.5809984 388.762,31.911 C388.336665,32.2410017 387.816003,32.406 387.2,32.406 L381.392,32.406 L393.8,0.352 L401.412,0.352 L413.82,32.406 Z M393.228,20.152 L401.984,20.152 L399.036,11.374 C398.845332,10.8166639 398.621668,10.1603371 398.365,9.405 C398.108332,8.64966289 397.855335,7.8320044 397.606,6.952 C397.371332,7.84667114 397.129335,8.67532952 396.88,9.438 C396.630665,10.2006705 396.396001,10.8606639 396.176,11.418 L393.228,20.152 Z"/>
  </g>
</svg>
