<svg xmlns="http://www.w3.org/2000/svg" width="54" height="63" viewBox="0 0 54 63">
  <g fill="none" fill-rule="evenodd">
    <polygon fill="#DCEEC2" points="26.958 0 53.928 15.84 53.928 47.02 26.958 62.74 0 47.02 0 15.84"/>
    <polygon fill="#46483D" points="3.6 37.493 6.872 35.655 6.872 32.495 8.464 31.261 9.911 32.495 9.911 35.655 12.983 37.493 12.983 30.308 8.464 27.733 3.6 30.308"/>
    <polygon fill="#46483D" points="21.131 27.733 25.631 30.39 25.631 35.911 21.131 38.529 16.304 35.911 16.304 30.39"/>
    <polygon fill="#DCEEC2" points="21.035 31.074 22.778 32.103 22.778 34.241 21.035 35.255 19.166 34.241 19.166 32.103"/>
    <polygon fill="#46483D" points="46.588 32.021 47.737 32.604 47.737 33.815 46.588 34.389 45.356 33.815 45.356 32.604"/>
    <polygon fill="#46483D" points="48.825 33.804 51.121 32.495 51.121 30.144 46.563 27.733 41.964 30.144 41.964 35.557 46.542 38.529 48.825 36.861 44.416 34.342 44.416 31.679 46.563 30.697 48.825 31.679"/>
    <polygon fill="#46483D" points="35.723 28.736 33.829 27.733 29.642 30.166 29.642 35.817 33.829 38.529 38.775 35.817 38.775 23.299 35.723 21.6"/>
    <polygon fill="#DCEEC2" points="33.892 31.074 35.635 32.103 35.635 34.241 33.892 35.255 32.023 34.241 32.023 32.103"/>
  </g>
</svg>
