<svg xmlns="http://www.w3.org/2000/svg" width="54" height="54" viewBox="0 0 54 54">
  <g fill="none" fill-rule="evenodd">
    <rect width="54" height="54" fill="#D7F1F6" rx="12"/>
    <path fill="#1A5A66" fill-rule="nonzero" d="M26.4447451,34.3645244 C36.6283299,34.3645244 44.7761404,31.2009596 44.7761404,26.7075477 C44.7761404,22.2141357 36.6283299,19.0505709 26.4447451,19.0505709 C16.2611603,19.0505709 8.11334971,22.2141357 8.11334971,26.7075477 C8.11334971,31.2009596 16.2611603,34.3645244 26.4447451,34.3645244 Z M26.4447451,32.8645244 C17.0296864,32.8645244 9.61334971,29.9849703 9.61334971,26.7075477 C9.61334971,23.4301251 17.0296864,20.5505709 26.4447451,20.5505709 C35.8598037,20.5505709 43.2761404,23.4301251 43.2761404,26.7075477 C43.2761404,29.9849703 35.8598037,32.8645244 26.4447451,32.8645244 Z" transform="rotate(60 26.445 26.708)"/>
    <path fill="#1A5A66" fill-rule="nonzero" d="M26.4447451,34.3645244 C36.6283299,34.3645244 44.7761404,31.2009596 44.7761404,26.7075477 C44.7761404,22.2141357 36.6283299,19.0505709 26.4447451,19.0505709 C16.2611603,19.0505709 8.11334971,22.2141357 8.11334971,26.7075477 C8.11334971,31.2009596 16.2611603,34.3645244 26.4447451,34.3645244 Z M26.4447451,32.8645244 C17.0296864,32.8645244 9.61334971,29.9849703 9.61334971,26.7075477 C9.61334971,23.4301251 17.0296864,20.5505709 26.4447451,20.5505709 C35.8598037,20.5505709 43.2761404,23.4301251 43.2761404,26.7075477 C43.2761404,29.9849703 35.8598037,32.8645244 26.4447451,32.8645244 Z" transform="scale(-1 1) rotate(60 0 -19.096)"/>
    <path fill="#1A5A66" fill-rule="nonzero" d="M26.4447451,34.3645244 C36.6283299,34.3645244 44.7761404,31.2009596 44.7761404,26.7075477 C44.7761404,22.2141357 36.6283299,19.0505709 26.4447451,19.0505709 C16.2611603,19.0505709 8.11334971,22.2141357 8.11334971,26.7075477 C8.11334971,31.2009596 16.2611603,34.3645244 26.4447451,34.3645244 Z M26.4447451,32.8645244 C17.0296864,32.8645244 9.61334971,29.9849703 9.61334971,26.7075477 C9.61334971,23.4301251 17.0296864,20.5505709 26.4447451,20.5505709 C35.8598037,20.5505709 43.2761404,23.4301251 43.2761404,26.7075477 C43.2761404,29.9849703 35.8598037,32.8645244 26.4447451,32.8645244 Z" transform="matrix(-1 0 0 1 52.89 0)"/>
    <circle cx="26.581" cy="26.641" r="2.93" fill="#1A5A66"/>
  </g>
</svg>
