<svg xmlns="http://www.w3.org/2000/svg" width="54" height="54" viewBox="0 0 54 54">
  <g fill="none" fill-rule="evenodd">
    <rect width="54" height="54" fill="#EAD6F0" rx="12"/>
    <path fill="#5D1971" d="M27.2367164,24.4159397 L30.8600786,22.2557646 C31.3344556,21.972951 31.4897484,21.3591267 31.2069348,20.8847497 C31.1935474,20.8622944 31.1792846,20.8403727 31.1641793,20.8190352 C28.5594726,17.1396784 25.2367129,15.3 21.1959001,15.3 C13.761891,15.3 9,21.3431471 9,27.4224039 C9,35.3630199 14.7904944,39.6799226 21.1959001,39.6799226 C25.21697,39.6799226 28.5286849,37.9099185 31.1310446,34.3699105 L31.1310369,34.3699048 C31.458154,33.924925 31.3626075,33.2990169 30.9176278,32.9718997 C30.8882091,32.9502732 30.857628,32.9302742 30.826022,32.9119925 L27.2681391,30.8540668 C26.8438656,30.6086567 26.3042539,30.7069374 25.9937488,31.0861745 C24.7013078,32.6647042 23.1020249,33.453969 21.1959001,33.453969 C17.7347917,33.453969 15.0182925,30.7676549 15.0182925,27.4899613 C15.0182925,24.6164923 17.4155699,21.7174584 20.8321553,21.7174584 C22.7846736,21.7174584 24.499229,22.5515643 25.9758216,24.2197761 L25.9758057,24.2197902 C26.2943615,24.5796853 26.8238879,24.6620594 27.2367164,24.4159397 Z"/>
    <path fill="#5D1971" fill-rule="nonzero" d="M37.7900879,28.5210286 L38.1785645,26.6309408 L36.3482422,26.6309408 L36.3482422,24.5690267 L38.5894531,24.5690267 L39.119873,21.894515 L41.2490234,21.894515 L40.7036621,24.5690267 L42.3397461,24.5690267 L42.8776367,21.894515 L44.9993164,21.894515 L44.4763672,24.5690267 L45.4998535,24.5690267 L45.4998535,26.6309408 L44.0580078,26.6309408 L43.677002,28.5210286 L45.4998535,28.5210286 L45.4998535,30.5829427 L43.2661133,30.5829427 L42.7356934,33.2126302 L40.606543,33.2126302 L41.1294922,30.5829427 L39.5008789,30.5829427 L38.9629883,33.2126302 L36.8487793,33.2126302 L37.3941406,30.5829427 L36.3482422,30.5829427 L36.3482422,28.5210286 L37.7900879,28.5210286 Z M39.9117676,28.5210286 L41.5478516,28.5210286 L41.9363281,26.6309408 L40.3077148,26.6309408 L39.9117676,28.5210286 Z"/>
  </g>
</svg>
