<svg xmlns="http://www.w3.org/2000/svg" width="54" height="54" viewBox="0 0 54 54">
  <g fill="none" fill-rule="evenodd">
    <rect width="54" height="54" fill="#D0E2EF" rx="11"/>
    <g fill="#153E5B" transform="translate(11.7 6.3)">
      <path d="M14.8720609,21.7007351 C12.4644083,18.1067461 11.4192054,15.5979468 11.7364522,14.1743373 C12.0926354,12.9085322 17.5086352,9.31537362 19.6790503,4.46702467 C20.1645205,3.30716656 19.8005805,1.81815834 18.5872302,-1.49213975e-13 C18.9068523,1.93371681 18.8250906,3.42272504 18.341945,4.46702467 C14.622909,10.4632008 10.2040716,9.44200401 9.28864014,14.1743373 C9.09223898,16.4816575 10.9533793,18.9904568 14.8720609,21.7007351 Z"/>
      <path d="M21.4145964,22.9483832 C20.4345988,21.5759406 20.3382247,20.4007215 21.1254742,19.4227261 C23.5102216,16.5676064 24.3849554,13.8531985 21.4145964,11.5524381 C19.9716398,10.3529244 17.651465,9.22861058 14.4540721,8.1794965 C17.2762142,9.94568647 18.9740278,11.2705414 19.547513,12.1540614 C22.7903177,16.373296 18.3364061,15.6184073 18.5227279,19.4227261 C18.5227279,20.7856301 19.486684,21.9608491 21.4145964,22.9483832 Z" transform="matrix(-1 0 0 1 37.756 0)"/>
      <path d="M10.0093386 21.7007351C6.71761059 22.9684205 5.98214616 23.6900808 7.80294536 23.865716 10.080602 24.1640126 15.0853476 24.0099209 22.8171822 23.4034412 21.2969089 24.527296 19.2913249 25.1869131 16.8004304 25.3822925 11.5810833 25.7262354 5.18560985 25.294585 3.81116669 24.6558937 1.83653572 23.6271691 3.90259304 22.6421162 10.0093386 21.7007351zM6.18019184 33.51996C2.58715095 34.803977 1.9103685 35.5938015 4.14984447 35.8894335 19.3792905 37.0283279 26.9449724 36.3452154 26.8468902 33.840096 28.8571994 35.3380158 26.6892092 36.5478103 20.3429197 37.4694797 13.7436685 37.8134226 2.70449215 37.9222469.407173299 36.3650826-.921821805 35.111173 1.00251771 34.1627989 6.18019184 33.51996zM8.2038392 26.3823639C7.57102073 27.1172754 8.28263143 27.6193673 10.3386713 27.8886395 11.5377765 28.045682 14.7206024 27.8761198 19.8871488 27.379953L21.6194877 28.2979978C20.9321501 28.8338966 19.343034 29.1995357 16.8521394 29.3949151 11.6327924 29.738858 8.2851983 29.3289901 6.91075514 28.6902987 5.4169603 27.8167349 5.84798833 27.0474233 8.2038392 26.3823639z"/>
      <path d="M9.1210931 30.7420306C8.84069858 31.1577398 9.56595193 31.5137455 11.2968532 31.8100477 12.3063339 31.9828544 14.8333203 31.845762 18.8778122 31.3987706L20.8281093 32.6165404C20.0902726 33.1982436 18.6728599 33.5965912 16.5758711 33.8115832 12.1819028 34.1900517 9.36966089 33.6499692 8.21256983 32.9471649 7.02240332 32.2242709 7.32524441 31.4892261 9.1210931 30.7420306zM5.46918216 38.5043519C9.13466279 38.5043519 16.0540889 39.2177888 24.6703237 37.8897202 26.1923995 37.6551141 27.7099732 36.9267947 29.2230449 35.7047621 29.1567791 37.5711553 27.6963008 38.7415039 24.84161 39.215808 18.8778122 39.9086681 9.20026957 40.3457757 5.46918216 38.5043519zM22.8171822 29.3949151C26.9540659 28.1203225 29.0893535 26.5080245 29.2230449 24.558021 29.4221548 21.7475197 27.6533699 20.795091 23.9166903 21.7007351 26.0729562 21.9642142 27.1510892 22.9166428 27.1510892 24.558021 26.9675128 26.1189019 25.5228771 27.7311999 22.8171822 29.3949151z"/>
    </g>
  </g>
</svg>
