<svg xmlns="http://www.w3.org/2000/svg" width="54" height="54" viewBox="0 0 54 54">
  <g fill="none" fill-rule="evenodd">
    <rect width="54" height="54" fill="#CFE6F6" rx="12"/>
    <g fill="#336689" transform="translate(15.9 24.1)">
      <path d="M27.5021752,5.54796862 L30.8128362,3.51082452 C29.3521899,1.2121149 27.2946221,0.101432235 24.6401328,0.178776517 C21.4639408,0.178776517 18.3848151,2.00305895 18.3848151,5.54796862 C17.9002471,13.1394649 27.9007645,11.1976532 27.9007645,15.3368637 C27.9007645,16.6151477 26.9339596,17.4694737 24.575,17.4694737 C22.791759,17.4694737 21.429653,16.6075316 20.4886821,14.8836474 L17.075,16.9424803 C18.830231,19.757531 21.3519419,21.1650564 24.6401328,21.1650564 C28.5261494,21.3619963 32.4733807,18.6060972 32.0426702,15.3368637 C31.7357173,7.78454097 22.8528431,9.60333522 22.5897674,5.54796862 C22.5897674,4.564217 23.410839,3.82464235 24.33219,3.73007741 C25.4487477,3.56417119 26.5054094,4.17013493 27.5021752,5.54796862 Z"/>
      <polygon points=".075 .175 .075 3.907 6.285 3.907 6.285 21.175 10.856 21.175 10.856 3.907 17.075 3.907 17.075 .175"/>
    </g>
  </g>
</svg>
