<svg xmlns="http://www.w3.org/2000/svg" width="54" height="54" viewBox="0 0 54 54">
  <g fill="#8BADE1" fill-rule="evenodd" transform="translate(3 13)">
    <path d="M21.0401229,10.6427336 L25.5056983,7.98045116 C25.9800968,7.69764885 26.1353932,7.08381048 25.8525731,6.60942259 C25.8406179,6.58936956 25.8279641,6.56974133 25.8146351,6.55057399 C22.777766,2.18352466 18.8886356,-7.28306304e-14 14.1472441,-7.28306304e-14 C5.52379351,-7.28306304e-14 6.57252031e-14,7.01005067 6.57252031e-14,14.0619885 C6.57252031e-14,23.2731031 6.71697354,28.2807102 14.1472441,28.2807102 C18.8687157,28.2807102 22.7470909,26.176991 25.7823697,21.9695526 C26.1054378,21.5216478 26.0042871,20.8966427 25.5564079,20.5735391 C25.5292227,20.5539275 25.5010686,20.5356953 25.4720522,20.5189115 L21.0725738,17.974147 C20.6442045,17.7264181 20.099056,17.8292136 19.7903552,18.2159612 C18.2776956,20.1110564 16.3966586,21.058604 14.1472441,21.058604 C10.1323584,21.058604 6.98121935,17.9424797 6.98121935,14.1403551 C6.98121935,10.8071311 9.7620611,7.44425176 13.7253001,7.44425176 C16.025803,7.44425176 18.0415277,8.44245396 19.7724745,10.4388584 C20.089837,10.8049377 20.623974,10.8908328 21.0401229,10.6427336 Z"/>
    <polygon fill-rule="nonzero" points="28.734 12.691 31.662 12.691 31.662 9.747 34.132 9.747 34.132 12.691 37.076 12.691 37.076 15.168 34.132 15.168 34.132 18.097 31.662 18.097 31.662 15.168 28.734 15.168"/>
    <polygon fill-rule="nonzero" points="39.072 12.691 42 12.691 42 9.747 44.47 9.747 44.47 12.691 47.414 12.691 47.414 15.168 44.47 15.168 44.47 18.097 42 18.097 42 15.168 39.072 15.168"/>
  </g>
</svg>
