<svg xmlns="http://www.w3.org/2000/svg" width="54" height="54" viewBox="0 0 54 54">
  <g fill="none" fill-rule="evenodd">
    <g fill="#CF9DDD" transform="translate(4 13)">
      <path d="M22.4414631,11.4063469 L27.3281655,8.49299745 C27.8025413,8.2101819 27.9578341,7.59635764 27.6750205,7.12198066 C27.6636297,7.10287433 27.6516046,7.08415338 27.6389652,7.06584907 C24.3862498,2.35528302 20.2142335,-7.63833441e-14 15.1229161,-7.63833441e-14 C5.90474479,-7.63833441e-14 5.68434189e-14,7.49350244 5.68434189e-14,15.0317809 C5.68434189e-14,24.8781447 7.1802131,30.231104 15.1229161,30.231104 C20.1941611,30.231104 24.3555182,27.9607242 27.6069871,23.4199647 C27.9285506,22.9709329 27.8251909,22.3462464 27.3761456,22.0247018 C27.3498455,22.0058692 27.322647,21.9883238 27.2946462,21.9721275 L22.4743658,19.1839608 C22.0443432,18.9352324 21.4969268,19.0398854 21.1889825,19.4297001 C19.5662552,21.4838478 17.544233,22.5109216 15.1229161,22.5109216 C10.8311417,22.5109216 7.46268276,19.1798921 7.46268276,15.115552 C7.46268276,11.5524505 10.4353067,7.95764844 14.6718726,7.95764844 C17.1465561,7.95764844 19.3129659,9.0382078 21.1711018,11.1993265 C21.4879595,11.5679149 22.0239663,11.6552498 22.4414631,11.4063469 Z"/>
      <path fill-rule="nonzero" d="M35.699709,16.3940755 L36.1814199,14.0503665 L33.9118203,14.0503665 L33.9118203,11.4935931 L36.6909219,11.4935931 L37.3486426,8.17719857 L39.9887891,8.17719857 L39.312541,11.4935931 L41.3412852,11.4935931 L42.0082695,8.17719857 L44.6391523,8.17719857 L43.9906953,11.4935931 L45.2598184,11.4935931 L45.2598184,14.0503665 L43.4719297,14.0503665 L42.9994824,16.3940755 L45.2598184,16.3940755 L45.2598184,18.950849 L42.4899805,18.950849 L41.8322598,22.2116615 L39.1921133,22.2116615 L39.8405703,18.950849 L37.8210898,18.950849 L37.1541055,22.2116615 L34.5324863,22.2116615 L35.2087344,18.950849 L33.9118203,18.950849 L33.9118203,16.3940755 L35.699709,16.3940755 Z M38.3305918,16.3940755 L40.3593359,16.3940755 L40.8410469,14.0503665 L38.8215664,14.0503665 L38.3305918,16.3940755 Z"/>
    </g>
    <polygon points="39.912 28.221 41.548 28.221 41.936 26.331 40.308 26.331"/>
  </g>
</svg>
