<svg xmlns="http://www.w3.org/2000/svg" width="54" height="54" viewBox="0 0 54 54">
  <g fill="#A6C5DB" fill-rule="evenodd" transform="translate(11 6)">
    <path d="M15.615664,22.7857719 C13.0876287,19.0120834 11.9901657,16.3778441 12.3232748,14.8830541 C12.6972672,13.5539588 18.3840669,9.78114231 20.6630028,4.6903759 C21.1727465,3.47252489 20.7906095,1.90906625 19.5165917,-1.49213975e-13 C19.852195,2.03040265 19.7663451,3.59386129 19.2590422,4.6903759 C15.3540545,10.9863609 10.7142752,9.91410421 9.75307215,14.8830541 C9.54685093,17.3057404 11.5010482,19.9399796 15.615664,22.7857719 Z"/>
    <path d="M22.4853262,24.0958023 C21.4563287,22.6547376 21.355136,21.4207576 22.1817479,20.3938624 C24.6857327,17.3959867 25.6042032,14.5458585 22.4853262,12.13006 C20.9702218,10.8705707 18.5340383,9.69004111 15.1767757,8.58847133 C18.1400249,10.4429708 19.9227292,11.8340685 20.5248887,12.7617645 C23.9298336,17.1919607 19.2532264,16.3993277 19.4488642,20.3938624 C19.4488642,21.8249116 20.4610182,23.0588916 22.4853262,24.0958023 Z" transform="matrix(-1 0 0 1 39.643 0)"/>
    <path d="M10.5098056 22.7857719C7.05349112 24.1168416 6.28125347 24.8745849 8.19309262 25.0590018 10.5846321 25.3722132 15.839615 25.210417 23.9580413 24.5736133 22.3617543 25.7536608 20.2558912 26.4462587 17.6404519 26.6514071 12.1601375 27.0125471 5.44489034 26.5593143 4.00172502 25.8886884 1.9283625 24.8085275 4.09772269 23.774222 10.5098056 22.7857719zM6.48920144 35.195958C2.7165085 36.5441759 2.00588692 37.3734916 4.3573367 37.6839052 20.348255 38.8797443 28.292221 38.1624761 28.1892347 35.5321008 30.3000594 37.1049165 28.0236697 38.3752008 21.3600656 39.3429536 14.4308519 39.7040937 2.83971676 39.8183593.427531964 38.1833367-.967912895 36.8667317 1.0526436 35.8709388 6.48920144 35.195958zM8.61403116 27.701482C7.94957177 28.4731392 8.696763 29.0003357 10.8556049 29.2830715 12.1146654 29.4479661 15.4566325 29.2699258 20.8815062 28.7489507L22.7004621 29.7128977C21.9787576 30.2755914 20.3101857 30.6595125 17.6947464 30.8646609 12.214432 31.2258009 8.69945822 30.7954396 7.2562929 30.1248137 5.68780832 29.2075717 6.14038774 28.3997945 8.61403116 27.701482z"/>
    <path d="M9.57714776 32.2791321C9.28273351 32.7156268 10.0442495 33.0894327 11.8616958 33.40055 12.9216506 33.5819971 15.5749863 33.4380501 19.8217028 32.9687091L21.8695148 34.2473674C21.0947862 34.8581558 19.6065029 35.2764208 17.4046647 35.5021623 12.7909979 35.8995543 9.83814393 35.3324677 8.62319833 34.5945231 7.37352349 33.8354844 7.69150663 33.0636874 9.57714776 32.2791321zM5.74264127 40.4295695C9.59139593 40.4295695 16.8567934 41.1786783 25.9038399 39.7842062 27.5020195 39.5378698 29.0954719 38.7731345 30.6841972 37.4900002 30.614618 39.449713 29.0811158 40.6785791 26.0836905 41.1765984 19.8217028 41.9041015 9.66028305 42.3630645 5.74264127 40.4295695zM23.9580413 30.8646609C28.3017692 29.5263386 30.5438211 27.8334257 30.6841972 25.7859221 30.8932625 22.8348956 29.0360384 21.8348456 25.1125248 22.7857719 27.3766041 23.0624249 28.5086437 24.062475 28.5086437 25.7859221 28.3158885 27.424847 26.799021 29.1177599 23.9580413 30.8646609z"/>
  </g>
</svg>
