<svg xmlns="http://www.w3.org/2000/svg" width="54" height="54" viewBox="0 0 54 54">
  <path fill="#FFDB76" fill-rule="evenodd" d="M18.3229832 0L12.1014022 0C12.1014022 8.74136944 12.1014022 15.550831 12.1014022 20.4283847 12.1014022 25.7671981 6.57114411 26.0533157 5.00499947 21.5840746 1.75818823 23.5848879.134782609 24.5852945.134782609 24.5852945 1.57702829 28.2103156 4.16832197 30.0228261 7.90866365 30.0228261 9.74035892 30.0228261 7.70150696 30.0228261 10.5689502 30.0228261 14.5406105 30.0228261 18.5261471 27.6421751 18.3229832 20.4283847 18.3229832 13.7955515 18.3229832 6.9860899 18.3229832 0zM36.5154746 7.68150964L41.1338467 4.7690895C39.0962451 1.48272002 36.2259381-.105176773 32.5229255.00539912857 28.0921377.00539912857 23.7967573 2.61349981 23.7967573 7.68150964 23.1207849 18.5347559 37.0715067 15.7586285 37.0715067 21.6762856 37.0715067 23.503795 35.7228139 24.7251893 32.4320652 24.7251893 29.944444 24.7251893 28.0443062 23.4929065 26.7316517 21.0283411L21.9695652 23.9717688C24.4181124 27.9963297 27.9358992 30.0086102 32.5229255 30.0086102 37.9439186 30.290167 43.4503063 26.3501726 42.8494651 21.6762856 42.4212659 10.8790441 30.0296564 13.4792985 29.6626657 7.68150964 29.6626657 6.27508089 30.8080607 5.21774179 32.0933453 5.08254622 33.6509432 4.84535701 35.1249863 5.71167815 36.5154746 7.68150964z" transform="translate(4 14)"/>
</svg>
