<svg xmlns="http://www.w3.org/2000/svg" xmlns:xlink="http://www.w3.org/1999/xlink" width="54" height="54" viewBox="0 0 54 54">
  <defs>
    <polygon id="node-b" points="21.823 0 43.656 12.823 43.656 38.064 21.823 50.789 0 38.064 0 12.823"/>
    <filter id="node-a" width="228.3%" height="210.3%" x="-64.1%" y="-51.2%" filterUnits="objectBoundingBox">
      <feOffset dy="2" in="SourceAlpha" result="shadowOffsetOuter1"/>
      <feGaussianBlur in="shadowOffsetOuter1" result="shadowBlurOuter1" stdDeviation="9"/>
      <feColorMatrix in="shadowBlurOuter1" values="0 0 0 0 0.638354792   0 0 0 0 0.902428668   0 0 0 0 0.872651107  0 0 0 0.2 0"/>
    </filter>
    <path id="node-c" d="M14.1916273,4.96488013 L17.8345902,7.11557973 L17.8345902,11.58542 L14.1916273,13.7042004 L10.2842277,11.58542 L10.2842277,7.11557973 L14.1916273,4.96488013 Z M34.7796062,4.96488013 L38.4691548,6.91685393 L38.4691548,8.81954887 L36.6109461,9.87966617 L36.6109461,8.15949105 L34.7796062,7.36458787 L33.0418244,8.15949105 L33.0418244,10.3146132 L36.6109461,12.3539802 L34.7626923,13.7042004 L31.0562298,11.2989164 L31.0562298,6.91685393 L34.7796062,4.96488013 Z M26.0042992,-4.79616347e-13 L28.4750809,1.37502484 L28.4750809,11.5087906 L24.4711799,13.7042004 L21.0814861,11.5087906 L21.0814861,6.93434776 L24.4711799,4.96488013 L26.0042992,5.77641187 L26.0042992,-4.79616347e-13 Z M3.93736133,4.96488013 L7.59578837,7.04943394 L7.59578837,12.8658409 L5.10896263,11.3779452 L5.10896263,8.81954887 L3.93736133,7.8206786 L2.64881252,8.81954887 L2.64881252,11.3779452 L-2.66453526e-14,12.8658409 L-2.66453526e-14,7.04943394 L3.93736133,4.96488013 Z M14.1142293,7.66917293 L12.6007604,8.50221207 L12.6007604,10.2335333 L14.1142293,11.054209 L15.5252728,10.2335333 L15.5252728,8.50221207 L14.1142293,7.66917293 Z M24.5223925,7.66917293 L23.0089237,8.50221207 L23.0089237,10.2335333 L24.5223925,11.054209 L25.933436,10.2335333 L25.933436,8.50221207 L24.5223925,7.66917293 Z M34.8000457,8.43609023 L35.7300121,8.90792575 L35.7300121,9.88855058 L34.8000457,10.3533835 L33.8025745,9.88855058 L33.8025745,8.90792575 L34.8000457,8.43609023 Z"/>
    <filter id="node-d" width="113%" height="136.5%" x="-6.5%" y="-18.2%" filterUnits="objectBoundingBox">
      <feGaussianBlur in="SourceAlpha" result="shadowBlurInner1" stdDeviation="2"/>
      <feOffset dx="1" dy="1" in="shadowBlurInner1" result="shadowOffsetInner1"/>
      <feComposite in="shadowOffsetInner1" in2="SourceAlpha" k2="-1" k3="1" operator="arithmetic" result="shadowInnerInner1"/>
      <feColorMatrix in="shadowInnerInner1" values="0 0 0 0 0   0 0 0 0 0   0 0 0 0 0  0 0 0 0.5 0"/>
    </filter>
  </defs>
  <g fill="none" fill-rule="evenodd" transform="translate(5 2)">
    <use fill="#000" filter="url(#node-a)" xlink:href="#node-b"/>
    <use fill="#DCEEC2" xlink:href="#node-b"/>
    <g transform="translate(2.914 17.486)">
      <use fill="#46483D" xlink:href="#node-c"/>
      <use fill="#000" filter="url(#node-d)" xlink:href="#node-c"/>
    </g>
  </g>
</svg>
