<svg xmlns="http://www.w3.org/2000/svg" width="54" height="54" viewBox="0 0 54 54">
  <g fill="#A9E0EB" fill-rule="evenodd" transform="translate(7 5)">
    <path fill-rule="nonzero" d="M19.672717,30.3857062 C30.6014421,30.3857062 39.3454339,26.990661 39.3454339,22.1684628 C39.3454339,17.3462646 30.6014421,13.9512195 19.672717,13.9512195 C8.7439918,13.9512195 0,17.3462646 0,22.1684628 C0,26.990661 8.7439918,30.3857062 19.672717,30.3857062 Z M19.672717,28.7759501 C9.56875159,28.7759501 1.6097561,25.6856969 1.6097561,22.1684628 C1.6097561,18.6512288 9.56875159,15.5609756 19.672717,15.5609756 C29.7766823,15.5609756 37.7356778,18.6512288 37.7356778,22.1684628 C37.7356778,25.6856969 29.7766823,28.7759501 19.672717,28.7759501 Z" transform="rotate(60 19.673 22.168)"/>
    <path fill-rule="nonzero" d="M19.672717,30.3857062 C30.6014421,30.3857062 39.3454339,26.990661 39.3454339,22.1684628 C39.3454339,17.3462646 30.6014421,13.9512195 19.672717,13.9512195 C8.7439918,13.9512195 1.8189894e-12,17.3462646 1.8189894e-12,22.1684628 C1.8189894e-12,26.990661 8.7439918,30.3857062 19.672717,30.3857062 Z M19.672717,28.7759501 C9.56875159,28.7759501 1.6097561,25.6856969 1.6097561,22.1684628 C1.6097561,18.6512288 9.56875159,15.5609756 19.672717,15.5609756 C29.7766823,15.5609756 37.7356778,18.6512288 37.7356778,22.1684628 C37.7356778,25.6856969 29.7766823,28.7759501 19.672717,28.7759501 Z" transform="scale(-1 1) rotate(60 0 -11.906)"/>
    <path fill-rule="nonzero" d="M19.672717,30.3857062 C30.6014421,30.3857062 39.3454339,26.990661 39.3454339,22.1684628 C39.3454339,17.3462646 30.6014421,13.9512195 19.672717,13.9512195 C8.7439918,13.9512195 1.8189894e-12,17.3462646 1.8189894e-12,22.1684628 C1.8189894e-12,26.990661 8.7439918,30.3857062 19.672717,30.3857062 Z M19.672717,28.7759501 C9.56875159,28.7759501 1.6097561,25.6856969 1.6097561,22.1684628 C1.6097561,18.6512288 9.56875159,15.5609756 19.672717,15.5609756 C29.7766823,15.5609756 37.7356778,18.6512288 37.7356778,22.1684628 C37.7356778,25.6856969 29.7766823,28.7759501 19.672717,28.7759501 Z" transform="matrix(-1 0 0 1 39.345 0)"/>
    <circle cx="19.819" cy="22.097" r="3.145"/>
  </g>
</svg>
