<svg xmlns="http://www.w3.org/2000/svg" width="54" height="54" viewBox="0 0 54 54">
  <g fill="#88B6D7" fill-rule="evenodd" transform="translate(5 14)">
    <path d="M35.0027684,7.06105097 L39.216337,4.46832212 C37.3573326,1.54269169 34.73861,0.129095571 31.3601691,0.227533748 C27.3177429,0.227533748 23.3988556,2.54934776 23.3988556,7.06105097 C22.7821326,16.7229553 35.5100639,14.2515586 35.5100639,19.5196448 C35.5100639,21.1465516 34.279585,22.2338756 31.2772727,22.2338756 C29.0076933,22.2338756 27.2741038,21.1368584 26.0765044,18.9428239 L21.7318182,21.5631568 C23.9657485,25.1459486 27.1751988,26.9373445 31.3601691,26.9373445 C36.3060083,27.1879953 41.3297573,23.6804873 40.7815802,19.5196448 C40.390913,9.9075976 29.0854367,12.2224266 28.750613,7.06105097 C28.750613,5.80900346 29.7956133,4.86772663 30.9682419,4.74737124 C32.3893152,4.53621788 33.7341574,5.30744446 35.0027684,7.06105097 Z"/>
    <polygon points=".095 .223 .095 4.972 7.999 4.972 7.999 26.95 13.816 26.95 13.816 4.972 21.732 4.972 21.732 .223"/>
  </g>
</svg>
