<svg xmlns="http://www.w3.org/2000/svg" width="54" height="54" viewBox="0 0 54 54">
  <path d="M14,34.389002 C14.7241783,34.389002 15.3711367,34.2668037 15.9408946,34.0224033 C16.5106525,33.7780029 16.9925433,33.4277009 17.3865815,32.9714868 C17.7806196,32.5152727 18.0814686,31.9585912 18.2891374,31.3014257 C18.4968062,30.6442601 18.600639,29.8974923 18.600639,29.0610998 L18.600639,15 L24,15 L24,29.0610998 C24,30.51664 23.7683729,31.8526755 23.3051118,33.0692464 C22.8418507,34.2858174 22.1789181,35.3340078 21.3162939,36.2138493 C20.4536698,37.0936908 19.404692,37.7780016 18.1693291,38.2668024 C16.9339661,38.7556033 15.5442037,39 14,39 C12.4451466,39 11.0500594,38.7556033 9.81469649,38.2668024 C8.57933355,37.7780016 7.53035575,37.0936908 6.66773163,36.2138493 C5.80510751,35.3340078 5.14483722,34.2858174 4.68690096,33.0692464 C4.2289647,31.8526755 4,30.51664 4,29.0610998 L4,15 L9.39936102,15 L9.39936102,29.0448065 C9.39936102,29.881199 9.50319385,30.6279668 9.71086262,31.2851324 C9.91853139,31.9422979 10.2193804,32.5016949 10.6134185,32.9633401 C11.0074567,33.4249853 11.4893475,33.7780029 12.0591054,34.0224033 C12.6288633,34.2668037 13.2758217,34.389002 14,34.389002 Z M33.6830484,26.6623198 L26.2948718,15 L31.8319088,15 C32.1923095,15 32.4571454,15.0466708 32.6264245,15.1400137 C32.7957036,15.2333567 32.9458683,15.389841 33.0769231,15.6094715 L37.8276353,23.6973233 C37.8822415,23.5545635 37.9450376,23.4172965 38.0160256,23.2855182 C38.0870137,23.1537399 38.1661914,23.0164729 38.2535613,22.8737131 L42.4145299,15.6918325 C42.6875607,15.2306085 43.058877,15 43.52849,15 L48.8361823,15 L41.3497151,26.4152368 L49,39 L43.462963,39 C43.1025623,39 42.8104237,38.9121491 42.5865385,38.7364447 C42.3626532,38.5607404 42.1851858,38.3520946 42.0541311,38.110501 L37.2706553,29.7096774 C37.2051279,29.8908726 37.1334581,30.0535346 37.0556448,30.1976662 L32.519943,38.110501 C32.3888882,38.341113 32.2141511,38.5470135 31.9957265,38.7282086 C31.7773019,38.9094038 31.5042751,39 31.1766382,39 L26,39 L33.6830484,26.6623198 Z"/>
</svg>
